<svg width="480" height="336" viewBox="0 0 480 336" fill="none" xmlns="http://www.w3.org/2000/svg">
<path d="M252.552 335.39C345.168 335.39 420.247 260.31 420.247 167.695C420.247 75.0796 345.168 0 252.552 0C159.937 0 84.8574 75.0796 84.8574 167.695C84.8574 260.31 159.937 335.39 252.552 335.39Z" fill="#DBE8EC"/>
<path d="M479.167 132.598V114.489C479.167 111.035 477.795 107.723 475.353 105.281C472.911 102.84 469.599 101.468 466.146 101.468H420.187C416.733 101.468 413.422 100.096 410.98 97.654C408.538 95.2122 407.166 91.9003 407.166 88.4469V70.3372C407.166 66.8839 408.538 63.572 410.98 61.1301C413.421 58.6882 416.733 57.3163 420.187 57.3163H421.638C425.091 57.3163 428.403 55.9445 430.845 53.5026C433.287 51.0607 434.659 47.7488 434.659 44.2955V26.1858C434.659 22.7324 433.287 19.4205 430.845 16.9786C428.403 14.5368 425.091 13.1649 421.638 13.1649H87.7187C84.2653 13.1649 80.9534 14.5368 78.5115 16.9786C76.0696 19.4205 74.6978 22.7324 74.6978 26.1858V44.2955C74.6978 47.7488 76.0696 51.0607 78.5115 53.5026C80.9534 55.9445 84.2653 57.3163 87.7187 57.3163C91.172 57.3163 94.4839 58.6882 96.9258 61.1301C99.3677 63.572 100.74 66.8839 100.74 70.3372V88.4469C100.74 91.9003 99.3677 95.2122 96.9258 97.6541C94.4839 100.096 91.172 101.468 87.7187 101.468H37.3658C33.9125 101.468 30.6006 102.84 28.1587 105.281C25.7168 107.723 24.345 111.035 24.345 114.489V132.598C24.345 136.052 25.7168 139.364 28.1587 141.805C30.6006 144.247 33.9125 145.619 37.3658 145.619H57.1235C58.8334 145.619 60.5266 145.956 62.1064 146.61C63.6862 147.265 65.1216 148.224 66.3307 149.433C67.5398 150.642 68.4989 152.077 69.1533 153.657C69.8076 155.237 70.1444 156.93 70.1444 158.64V176.75C70.1444 180.203 68.7726 183.515 66.3307 185.957C63.8888 188.399 60.5769 189.771 57.1236 189.771H57.0758C53.6225 189.771 50.3106 191.142 47.8687 193.584C45.4268 196.026 44.055 199.338 44.055 202.792V220.901C44.055 224.354 45.4268 227.666 47.8687 230.108C50.3106 232.55 53.6225 233.922 57.0758 233.922H59.9343C61.6443 233.922 63.3374 234.259 64.9172 234.913C66.497 235.568 67.9324 236.527 69.1415 237.736C70.3506 238.945 71.3097 240.38 71.964 241.96C72.6184 243.54 72.9552 245.233 72.9552 246.943V265.053C72.9552 268.506 71.5833 271.818 69.1414 274.26C66.6995 276.702 63.3876 278.074 59.9343 278.074H13.0209C9.56751 278.074 6.25561 279.445 3.81372 281.887C1.37184 284.329 0 287.641 0 291.094V309.204C1.32608e-05 312.657 1.37185 315.969 3.81374 318.411C6.25562 320.853 9.56752 322.225 13.0209 322.225H428.628C432.082 322.225 435.394 320.853 437.836 318.411C440.277 315.969 441.649 312.657 441.649 309.204V291.094C441.649 287.641 440.277 284.329 437.836 281.887C435.394 279.445 432.082 278.073 428.628 278.073H417.339C413.885 278.073 410.573 276.702 408.132 274.26C405.69 271.818 404.318 268.506 404.318 265.053V246.943C404.318 243.49 405.69 240.178 408.132 237.736C410.573 235.294 413.885 233.922 417.339 233.922H443.959C447.412 233.922 450.724 232.55 453.166 230.108C455.608 227.666 456.98 224.355 456.98 220.901V202.792C456.98 199.338 455.608 196.026 453.166 193.584C450.724 191.142 447.412 189.771 443.959 189.771H435.883C432.43 189.771 429.118 188.399 426.676 185.957C424.234 183.515 422.863 180.203 422.863 176.75V158.64C422.863 155.187 424.234 151.875 426.676 149.433C429.118 146.991 432.43 145.619 435.883 145.619H466.146C469.599 145.619 472.911 144.247 475.353 141.805C477.795 139.364 479.167 136.052 479.167 132.598Z" fill="#DBE8EC"/>
<path d="M299.358 3.85388H331.66" stroke="#B9D4DB" stroke-width="3" stroke-miterlimit="10" stroke-linecap="round"/>
<path d="M299.358 13.1649H331.66" stroke="#B9D4DB" stroke-width="3" stroke-miterlimit="10" stroke-linecap="round"/>
<path d="M299.358 22.476H331.66" stroke="#B9D4DB" stroke-width="3" stroke-miterlimit="10" stroke-linecap="round"/>
<path d="M33.7365 201.603H66.0394" stroke="#B9D4DB" stroke-width="3" stroke-miterlimit="10" stroke-linecap="round"/>
<path d="M33.7365 210.913H66.0394" stroke="#B9D4DB" stroke-width="3" stroke-miterlimit="10" stroke-linecap="round"/>
<path d="M33.7365 220.224H66.0394" stroke="#B9D4DB" stroke-width="3" stroke-miterlimit="10" stroke-linecap="round"/>
<path d="M420.246 286.931H452.549" stroke="#B9D4DB" stroke-width="3" stroke-miterlimit="10" stroke-linecap="round"/>
<path d="M420.246 296.241H452.549" stroke="#B9D4DB" stroke-width="3" stroke-miterlimit="10" stroke-linecap="round"/>
<path d="M420.246 305.552H452.549" stroke="#B9D4DB" stroke-width="3" stroke-miterlimit="10" stroke-linecap="round"/>
<path d="M461.363 127.849C468.989 127.849 475.17 121.667 475.17 114.042C475.17 106.417 468.989 100.235 461.363 100.235C453.738 100.235 447.556 106.417 447.556 114.042C447.556 121.667 453.738 127.849 461.363 127.849Z" fill="#B9D4DB"/>
<path d="M424.927 131.166C428.881 131.166 432.086 127.961 432.086 124.007C432.086 120.053 428.881 116.848 424.927 116.848C420.974 116.848 417.768 120.053 417.768 124.007C417.768 127.961 420.974 131.166 424.927 131.166Z" fill="#B9D4DB"/>
<path d="M443.106 90.4849C448.755 90.4849 453.334 85.9057 453.334 80.2569C453.334 74.6082 448.755 70.0289 443.106 70.0289C437.458 70.0289 432.878 74.6082 432.878 80.2569C432.878 85.9057 437.458 90.4849 443.106 90.4849Z" fill="#B9D4DB"/>
<path d="M78.9635 317.525C88.0364 317.525 95.3915 310.17 95.3915 301.097C95.3915 292.024 88.0364 284.669 78.9635 284.669C69.8905 284.669 62.5355 292.024 62.5355 301.097C62.5355 310.17 69.8905 317.525 78.9635 317.525Z" fill="#B9D4DB"/>
<path d="M46.4804 317.85C51.2063 317.85 55.0374 314.019 55.0374 309.293C55.0374 304.567 51.2063 300.736 46.4804 300.736C41.7545 300.736 37.9234 304.567 37.9234 309.293C37.9234 314.019 41.7545 317.85 46.4804 317.85Z" fill="#B9D4DB"/>
<path d="M36.4304 285.823C39.1565 285.823 41.3664 283.613 41.3664 280.887C41.3664 278.161 39.1565 275.951 36.4304 275.951C33.7044 275.951 31.4944 278.161 31.4944 280.887C31.4944 283.613 33.7044 285.823 36.4304 285.823Z" fill="#B9D4DB"/>
<path d="M60.9045 280.077C67.4396 280.077 72.7375 274.779 72.7375 268.244C72.7375 261.709 67.4396 256.411 60.9045 256.411C54.3693 256.411 49.0715 261.709 49.0715 268.244C49.0715 274.779 54.3693 280.077 60.9045 280.077Z" fill="#B9D4DB"/>
<path d="M165.013 63.586C174.086 63.586 181.441 56.2309 181.441 47.158C181.441 38.085 174.086 30.73 165.013 30.73C155.941 30.73 148.585 38.085 148.585 47.158C148.585 56.2309 155.941 63.586 165.013 63.586Z" fill="#B9D4DB"/>
<path d="M165.679 22.22C170.405 22.22 174.236 18.3889 174.236 13.663C174.236 8.93706 170.405 5.10596 165.679 5.10596C160.954 5.10596 157.122 8.93706 157.122 13.663C157.122 18.3889 160.954 22.22 165.679 22.22Z" fill="#B9D4DB"/>
<path d="M222.674 26.069C226.765 26.069 230.08 22.7532 230.08 18.663C230.08 14.5727 226.765 11.257 222.674 11.257C218.584 11.257 215.268 14.5727 215.268 18.663C215.268 22.7532 218.584 26.069 222.674 26.069Z" fill="#B9D4DB"/>
<path d="M195.73 16.4019C198.457 16.4019 200.666 14.192 200.666 11.4659C200.666 8.73983 198.457 6.52991 195.73 6.52991C193.004 6.52991 190.794 8.73983 190.794 11.4659C190.794 14.192 193.004 16.4019 195.73 16.4019Z" fill="#B9D4DB"/>
<path d="M201.466 50.241C208.002 50.241 213.299 44.9431 213.299 38.408C213.299 31.8728 208.002 26.575 201.466 26.575C194.931 26.575 189.633 31.8728 189.633 38.408C189.633 44.9431 194.931 50.241 201.466 50.241Z" fill="#B9D4DB"/>
<path d="M398.546 203.256L289.336 262.083V128.644L398.546 94.5499V203.256Z" fill="#E06714"/>
<path d="M289.337 128.644L160.416 115.602L133.994 76.6213C133.688 76.1702 133.511 75.6443 133.482 75.1002C133.452 74.556 133.572 74.0141 133.827 73.5326C134.082 73.0512 134.464 72.6484 134.931 72.3674C135.398 72.0865 135.932 71.9381 136.477 71.938H257.922C258.47 71.9381 259.008 72.0883 259.477 72.3725C259.946 72.6567 260.328 73.0639 260.582 73.55L289.337 128.644Z" fill="#F9AE2B"/>
<path d="M160.416 249.041L115.392 239.673C114.717 239.532 114.111 239.164 113.675 238.629C113.24 238.094 113.003 237.425 113.003 236.736V109.425C113.003 108.979 113.102 108.539 113.294 108.137C113.485 107.734 113.764 107.379 114.11 107.098C114.456 106.817 114.86 106.616 115.293 106.51C115.726 106.405 116.177 106.397 116.614 106.488L160.416 115.602V249.041ZM332.802 276.554L289.337 262.083V128.644L334.697 143.746C335.295 143.944 335.815 144.326 336.183 144.837C336.551 145.348 336.75 145.962 336.75 146.592V273.707C336.75 274.183 336.637 274.651 336.42 275.074C336.204 275.497 335.89 275.863 335.504 276.141C335.119 276.419 334.673 276.601 334.203 276.673C333.733 276.745 333.253 276.704 332.802 276.554Z" fill="#F9AE2B"/>
<path d="M289.336 262.083L160.415 249.041V115.602L289.336 128.644V262.083Z" fill="#409CB5"/>
<path d="M256.553 297.786L125.01 292.538L160.416 249.041L289.337 262.083L258.929 296.766C258.634 297.103 258.268 297.369 257.857 297.545C257.446 297.722 257 297.804 256.553 297.786Z" fill="#F9AE2B"/>
<path d="M289.336 128.644L398.546 94.55L265.056 82.124L289.336 128.644Z" fill="#EE781D"/>
<path d="M160.415 249.041L289.336 188.843V128.644L160.415 115.602V249.041Z" fill="#25788E"/>
<path d="M168.146 205.558C168.146 205.558 182.23 199.396 185.972 203.797C189.713 208.199 198.076 210.179 198.076 210.179L205.338 197.855L225.145 207.098L235.928 221.843L228.886 239.229C228.886 239.229 214.581 239.009 207.759 241.87C200.937 244.731 183.111 244.951 183.111 244.951L174.968 229.326C174.968 229.326 164.625 214.141 168.146 205.558Z" fill="#DBE8EC"/>
<path d="M198.076 210.179C199.43 211.379 200.731 212.624 202.006 213.891C203.292 215.148 204.53 216.446 205.773 217.74C206.989 219.056 208.237 220.344 209.416 221.691C210.606 223.029 211.817 224.349 212.966 225.721L210.431 226.975C209.856 224.583 209.288 222.188 208.78 219.781C208.26 217.375 207.816 214.953 207.35 212.536C206.503 207.682 205.712 202.816 205.338 197.855C207.135 202.494 208.515 207.227 209.838 211.973C210.457 214.356 211.098 216.734 211.664 219.128C212.241 221.521 212.759 223.926 213.269 226.333L213.273 226.354C213.341 226.672 213.3 227.003 213.157 227.295C213.014 227.587 212.778 227.822 212.486 227.964C212.194 228.106 211.862 228.146 211.545 228.078C211.227 228.01 210.942 227.837 210.734 227.588C209.587 226.213 208.502 224.788 207.396 223.38C206.28 221.981 205.232 220.524 204.153 219.094C203.099 217.642 202.042 216.194 201.032 214.705C200.011 213.226 199.017 211.725 198.076 210.179Z" fill="#BAD5DB"/>
<path d="M225.145 207.098C224.305 208.91 223.359 210.65 222.417 212.393C221.45 214.118 220.477 215.84 219.451 217.524C218.454 219.23 217.381 220.883 216.335 222.555C215.28 224.221 214.167 225.846 213.085 227.494L211.557 225.19C213.562 224.778 215.574 224.404 217.589 224.047C219.612 223.731 221.624 223.355 223.657 223.088C225.684 222.787 227.721 222.542 229.762 222.312C231.81 222.118 233.855 221.91 235.928 221.843C233.989 222.579 232.02 223.172 230.055 223.78C228.083 224.352 226.108 224.909 224.121 225.41C222.141 225.945 220.14 226.37 218.15 226.856C216.152 227.301 214.151 227.729 212.143 228.119L212.111 228.125C211.821 228.182 211.52 228.15 211.247 228.034C210.975 227.918 210.743 227.724 210.582 227.475C210.421 227.227 210.339 226.936 210.344 226.64C210.35 226.344 210.444 226.056 210.615 225.814C211.749 224.203 212.851 222.569 214.012 220.976C215.182 219.388 216.325 217.782 217.544 216.228C218.733 214.654 219.976 213.116 221.225 211.582C222.498 210.065 223.769 208.546 225.145 207.098Z" fill="#BAD5DB"/>
<path d="M228.886 239.229C227.261 238.459 225.724 237.57 224.179 236.692C222.653 235.788 221.141 234.865 219.66 233.901C216.679 231.997 213.794 229.963 210.962 227.857L213.128 227.429C211.417 230.219 209.642 232.971 207.739 235.645C206.808 236.994 205.819 238.309 204.826 239.621C203.809 240.918 202.792 242.215 201.671 243.45C202.247 241.885 202.927 240.383 203.606 238.881C204.309 237.394 205.017 235.909 205.782 234.459C207.272 231.535 208.89 228.688 210.571 225.88C210.671 225.712 210.804 225.566 210.961 225.449C211.118 225.333 211.296 225.248 211.485 225.201C211.675 225.153 211.872 225.143 212.065 225.172C212.258 225.2 212.444 225.267 212.612 225.367L212.725 225.442L212.738 225.452C215.584 227.537 218.378 229.695 221.076 231.982C222.434 233.114 223.761 234.287 225.075 235.478C226.369 236.697 227.671 237.903 228.886 239.229Z" fill="#BAD5DB"/>
<path d="M168.146 205.558C175.749 208.413 183.165 211.655 190.554 214.954C194.231 216.638 197.917 218.306 201.561 220.06C205.224 221.774 208.853 223.559 212.481 225.347L212.492 225.353C212.723 225.466 212.919 225.64 213.061 225.855C213.203 226.07 213.285 226.318 213.299 226.576C213.313 226.833 213.259 227.089 213.141 227.318C213.023 227.547 212.847 227.741 212.629 227.879C210.234 229.403 207.789 230.848 205.368 232.333C202.952 233.824 200.483 235.232 198.043 236.686C195.579 238.103 193.126 239.536 190.633 240.906C188.151 242.295 185.644 243.643 183.111 244.951C185.365 243.206 187.648 241.504 189.958 239.847C192.255 238.168 194.592 236.552 196.918 234.919C199.268 233.324 201.589 231.683 203.962 230.124C206.331 228.559 208.676 226.955 211.07 225.43L211.219 227.962C207.562 226.234 203.907 224.502 200.287 222.7C196.646 220.939 193.048 219.09 189.442 217.258C182.263 213.524 175.111 209.735 168.146 205.558Z" fill="#BAD5DB"/>
<path d="M174.069 227.92C176.64 226.949 179.112 225.735 181.453 224.295C183.632 223.01 185.447 221.189 186.726 219.006C187.834 216.771 188.233 214.251 187.869 211.783C187.496 209.066 186.86 206.392 185.972 203.797C187.948 205.945 189.391 208.528 190.185 211.337C191.093 214.356 190.801 217.609 189.371 220.419C187.829 223.112 185.427 225.209 182.55 226.374C179.88 227.537 176.977 228.066 174.069 227.92ZM196.562 219.275C196.399 221.325 196.046 223.356 195.508 225.342C194.995 227.295 194.378 229.219 193.658 231.106C192.943 232.994 192.124 234.842 191.206 236.641C190.287 238.482 189.198 240.232 187.951 241.869C188.111 239.818 188.462 237.786 189.002 235.8C189.514 233.847 190.132 231.923 190.855 230.038C191.574 228.151 192.393 226.304 193.311 224.505C194.23 222.664 195.319 220.914 196.562 219.275Z" fill="#BAD5DB"/>
<path d="M167.415 278.11C167.415 278.11 156.685 289.12 151.562 286.451C146.44 283.781 137.946 285.094 137.946 285.094L135.857 299.245L114.028 298.138L98.4873 288.536L98.4673 269.778C98.4673 269.778 111.803 264.598 117.046 259.379C122.29 254.161 138.722 247.247 138.722 247.247L152.147 258.658C152.147 258.658 167.446 268.833 167.415 278.11Z" fill="#C0D8DD"/>
<path d="M137.946 285.094C134.621 283.726 131.371 282.214 128.135 280.676C126.527 279.889 124.906 279.126 123.313 278.31C121.715 277.502 120.109 276.711 118.529 275.872L119.78 274.461C122.642 278.465 125.407 282.536 128.118 286.645C130.797 290.776 133.444 294.929 135.857 299.245C132.646 295.485 129.668 291.562 126.723 287.616C123.809 283.649 120.95 279.643 118.188 275.57L118.181 275.559C118.059 275.38 118.001 275.165 118.016 274.949C118.03 274.733 118.117 274.528 118.262 274.367C118.407 274.206 118.601 274.098 118.815 274.06C119.028 274.022 119.248 274.057 119.439 274.159C121.019 275 122.573 275.888 124.136 276.76C125.704 277.624 127.243 278.541 128.795 279.433C131.88 281.255 134.951 283.103 137.946 285.094Z" fill="#9FC6CC"/>
<path d="M114.028 298.138C114.456 294.199 115.074 290.3 115.754 286.416C116.424 282.529 117.204 278.665 118.01 274.807L119.532 275.847L114.385 279.193C112.646 280.271 110.928 281.384 109.17 282.435C107.424 283.505 105.658 284.543 103.886 285.573C102.1 286.582 100.32 287.599 98.4872 288.536C100.07 287.22 101.706 285.984 103.337 284.74C104.981 283.516 106.63 282.301 108.301 281.117C109.959 279.914 111.657 278.774 113.334 277.599L118.435 274.184C118.6 274.074 118.794 274.016 118.992 274.016C119.191 274.017 119.384 274.078 119.548 274.19C119.712 274.301 119.838 274.46 119.911 274.644C119.984 274.829 120 275.031 119.957 275.224C119.112 279.074 118.239 282.918 117.257 286.738C116.286 290.56 115.251 294.369 114.028 298.138Z" fill="#9FC6CC"/>
<path d="M98.4673 269.779C100.234 269.992 101.976 270.301 103.721 270.6C105.46 270.922 107.195 271.258 108.922 271.627C112.379 272.352 115.811 273.175 119.229 274.053L118.003 274.858C118.284 273.246 118.533 271.628 118.841 270.02C119.146 268.412 119.439 266.801 119.784 265.199C120.45 261.991 121.177 258.792 122.091 255.624C121.97 258.919 121.661 262.185 121.291 265.44C121.118 267.07 120.893 268.692 120.68 270.315C120.47 271.939 120.201 273.553 119.965 275.173C119.927 275.43 119.789 275.662 119.58 275.818C119.372 275.973 119.11 276.039 118.852 276.002L118.754 275.982L118.738 275.978C115.317 275.11 111.911 274.188 108.529 273.167C106.836 272.664 105.152 272.127 103.472 271.575C101.797 271.002 100.12 270.438 98.4673 269.779Z" fill="#9FC6CC"/>
<path d="M167.415 278.11C163.363 278.098 159.318 277.984 155.272 277.882C151.227 277.763 147.186 277.591 143.145 277.414C135.065 277.025 126.991 276.548 118.922 275.981L118.915 275.981C118.744 275.969 118.579 275.911 118.437 275.814C118.295 275.717 118.182 275.584 118.108 275.428C118.035 275.273 118.005 275.101 118.02 274.93C118.035 274.759 118.095 274.595 118.195 274.455C119.84 272.141 121.536 269.863 123.207 267.568C124.874 265.269 126.593 263.008 128.284 260.726C130.001 258.464 131.696 256.186 133.452 253.951C135.204 251.712 136.926 249.453 138.722 247.247C137.228 249.668 135.661 252.037 134.123 254.427C132.589 256.82 130.995 259.17 129.422 261.536C127.823 263.882 126.253 266.249 124.63 268.579C123.011 270.911 121.417 273.262 119.773 275.576L119.046 274.05C127.121 274.506 135.191 275.06 143.254 275.711C147.284 276.05 151.315 276.393 155.342 276.79C159.368 277.204 163.394 277.606 167.415 278.11Z" fill="#9FC6CC"/>
<path d="M153.51 259.622C151.365 261.355 149.425 263.329 147.728 265.503C146.078 267.544 145.011 269.994 144.641 272.592C144.502 273.86 144.607 275.143 144.949 276.372C145.279 277.642 145.789 278.859 146.464 279.984C147.908 282.329 149.619 284.499 151.562 286.451C149.053 285.054 146.869 283.139 145.155 280.834C143.299 278.426 142.407 275.414 142.653 272.384C143.067 269.407 144.429 266.643 146.538 264.503C148.495 262.406 150.87 260.743 153.51 259.622ZM135.925 276.098C135.492 274.111 135.188 272.098 135.016 270.071C134.826 268.06 134.704 266.047 134.662 264.033C134.613 262.018 134.648 260.002 134.749 257.985C134.832 255.952 135.049 253.928 135.397 251.924C135.833 253.911 136.138 255.924 136.31 257.951C136.499 259.962 136.622 261.974 136.661 263.989C136.706 266.004 136.673 268.02 136.57 270.037C136.487 272.069 136.272 274.094 135.925 276.098Z" fill="#9FC6CC"/>
</svg>
